<svg width="155" height="196" viewBox="0 0 155 196" fill="none" xmlns="http://www.w3.org/2000/svg">
<path d="M52.1875 87.5878L57.5366 89.4749C53.7632 93.4168 46.0978 102.724 47.9579 115.391C49.8239 128.097 63.8991 144.335 70.9069 151.465C59.9184 145.594 38.4016 130.054 37.3841 115.391C36.3889 101.049 47.1286 90.9007 52.1875 87.5878Z" fill="url(#paint0_linear_1543_6989)" stroke="black" stroke-width="0.25"/>
<path d="M76.9496 37.215L79.1889 39.4796L79.395 39.6876L79.1567 39.8585C74.3843 43.2851 68.1246 49.1577 64.8315 55.6329C63.1863 58.868 62.2908 62.237 62.6723 65.5177C63.0474 68.7416 64.66 71.9088 68.0659 74.8058C76.5776 67.6861 86.6785 62.6202 95.186 61.3458C99.4672 60.7046 103.368 61.02 106.46 62.5421C109.558 64.067 111.818 66.7902 112.836 70.9025L112.9 71.1144C113.197 72.2009 113.169 73.7057 112.719 75.3937C112.238 77.1997 111.267 79.2344 109.662 81.2247C106.531 85.1048 100.994 88.8094 91.9731 90.3556C93.7572 91.368 96.2031 93.2816 97.9047 95.9474C99.8358 98.9729 100.808 102.971 98.7709 107.69C97.3892 110.889 95.0251 113.336 92.1801 115.423C89.3382 117.508 85.9978 119.248 82.6577 121.022C75.9534 124.582 69.2478 128.29 66.1782 135.243L66.1694 135.264L66.1567 135.282C65.7817 135.837 65.638 136.83 65.7309 138.133C65.8227 139.421 66.1413 140.958 66.6303 142.554C67.61 145.75 69.2606 149.132 71.0932 151.171L70.9077 151.338L70.7211 151.506L69.6821 150.334C64.6844 144.621 62.5991 140.955 61.3344 135.831C60.6362 133.002 61.8254 130.682 64.184 128.404C66.5335 126.136 70.097 123.856 74.2524 121.096C77.0676 119.226 80.8858 117.175 84.0346 114.611C87.176 112.054 89.5618 109.05 89.5639 105.331C89.3554 102.364 88.4659 100.083 87.1069 98.2638C85.7439 96.4395 83.8984 95.0655 81.7631 93.9308C79.6264 92.7954 77.2097 91.9047 74.7104 91.0411C72.2171 90.1797 69.6378 89.3437 67.2026 88.3214C65.914 87.7805 62.7082 86.2528 59.4106 83.7823C56.1155 81.3137 52.7055 77.886 51.0434 73.5382C49.3757 69.1756 49.4796 63.9176 53.1586 57.8322C56.8307 51.7586 64.0625 44.8614 76.642 37.1779L76.811 37.0743L76.9496 37.215ZM96.4702 69.2413C94.6669 68.6998 92.0262 68.8586 89.1274 69.4493C83.3031 70.6364 76.0877 73.6419 71.6039 76.963L71.1157 77.3243L71.5649 77.7345C74.8652 80.7449 80.8611 82.4307 86.3832 82.0314C91.9108 81.6315 97.1809 79.114 98.7553 73.4777C99.0544 72.4067 99.0033 71.4771 98.5688 70.7286C98.1371 69.9854 97.3816 69.5151 96.4702 69.2413Z" fill="url(#paint1_linear_1543_6989)"/>
<path d="M76.9496 37.215L76.8606 37.3027L76.8608 37.3029L76.9496 37.215ZM79.1889 39.4796L79.1 39.5675L79.1001 39.5676L79.1889 39.4796ZM79.395 39.6876L79.4678 39.7892L79.5869 39.7038L79.4838 39.5997L79.395 39.6876ZM79.1567 39.8585L79.0838 39.7569L79.0838 39.757L79.1567 39.8585ZM64.8315 55.6329L64.7201 55.5763L64.7201 55.5763L64.8315 55.6329ZM62.6723 65.5177L62.5481 65.5321L62.5481 65.5321L62.6723 65.5177ZM68.0659 74.8058L67.9849 74.901L68.0652 74.9693L68.1461 74.9017L68.0659 74.8058ZM95.186 61.3458L95.1675 61.2222L95.1675 61.2222L95.186 61.3458ZM106.46 62.5421L106.516 62.43L106.516 62.43L106.46 62.5421ZM112.836 70.9025L112.715 70.9325L112.717 70.9383L112.836 70.9025ZM112.9 71.1144L113.02 71.0814L113.02 71.0785L112.9 71.1144ZM112.719 75.3937L112.84 75.4259L112.84 75.4259L112.719 75.3937ZM109.662 81.2247L109.759 81.3032L109.759 81.3032L109.662 81.2247ZM91.9731 90.3556L91.952 90.2324L91.6069 90.2915L91.9114 90.4643L91.9731 90.3556ZM97.9047 95.9474L98.0101 95.8801L98.0101 95.8801L97.9047 95.9474ZM98.7709 107.69L98.8857 107.739L98.8857 107.739L98.7709 107.69ZM92.1801 115.423L92.2541 115.524L92.2541 115.524L92.1801 115.423ZM82.6577 121.022L82.599 120.911L82.599 120.911L82.6577 121.022ZM66.1782 135.243L66.0638 135.193L66.0633 135.194L66.1782 135.243ZM66.1694 135.264L66.2725 135.334L66.2794 135.324L66.2843 135.313L66.1694 135.264ZM66.1567 135.282L66.0535 135.212L66.0531 135.212L66.1567 135.282ZM65.7309 138.133L65.6062 138.142L65.6062 138.142L65.7309 138.133ZM66.6303 142.554L66.5108 142.59L66.5108 142.59L66.6303 142.554ZM71.0932 151.171L71.1768 151.264L71.2697 151.18L71.1862 151.087L71.0932 151.171ZM70.9077 151.338L70.824 151.245L70.824 151.245L70.9077 151.338ZM70.7211 151.506L70.6276 151.589L70.7112 151.683L70.8048 151.599L70.7211 151.506ZM69.6821 150.334L69.588 150.416L69.5885 150.417L69.6821 150.334ZM61.3344 135.831L61.2131 135.861L61.2131 135.861L61.3344 135.831ZM64.184 128.404L64.0972 128.314L64.0972 128.315L64.184 128.404ZM74.2524 121.096L74.1832 120.992L74.1832 120.992L74.2524 121.096ZM84.0346 114.611L84.1135 114.708L84.1135 114.708L84.0346 114.611ZM89.5639 105.331L89.6892 105.331L89.6886 105.322L89.5639 105.331ZM87.1069 98.2638L87.207 98.189L87.207 98.189L87.1069 98.2638ZM81.7631 93.9308L81.8218 93.8204L81.8218 93.8204L81.7631 93.9308ZM74.7104 91.0411L74.7512 90.923L74.7512 90.923L74.7104 91.0411ZM67.2026 88.3214L67.1542 88.4367L67.1542 88.4367L67.2026 88.3214ZM59.4106 83.7823L59.3356 83.8824L59.3356 83.8824L59.4106 83.7823ZM51.0434 73.5382L50.9266 73.5828L50.9266 73.5828L51.0434 73.5382ZM53.1586 57.8322L53.0517 57.7675L53.0517 57.7675L53.1586 57.8322ZM76.642 37.1779L76.7072 37.2845L76.7073 37.2844L76.642 37.1779ZM76.811 37.0743L76.9 36.9866L76.8303 36.9159L76.7457 36.9678L76.811 37.0743ZM96.4702 69.2413L96.5061 69.1216L96.5061 69.1216L96.4702 69.2413ZM89.1274 69.4493L89.1024 69.3269L89.1024 69.3269L89.1274 69.4493ZM71.6039 76.963L71.6783 77.0635L71.6783 77.0635L71.6039 76.963ZM71.1157 77.3243L71.0413 77.2239L70.9192 77.3142L71.0314 77.4167L71.1157 77.3243ZM71.5649 77.7345L71.4806 77.8268L71.4806 77.8268L71.5649 77.7345ZM86.3832 82.0314L86.3923 82.156L86.3923 82.156L86.3832 82.0314ZM98.7553 73.4777L98.8757 73.5113L98.8757 73.5113L98.7553 73.4777ZM98.5688 70.7286L98.6769 70.6659L98.6769 70.6659L98.5688 70.7286ZM76.9496 37.215L76.8608 37.3029L79.1 39.5675L79.1889 39.4796L79.2778 39.3917L77.0385 37.1271L76.9496 37.215ZM79.1889 39.4796L79.1001 39.5676L79.3062 39.7756L79.395 39.6876L79.4838 39.5997L79.2777 39.3916L79.1889 39.4796ZM79.395 39.6876L79.3221 39.586L79.0838 39.7569L79.1567 39.8585L79.2295 39.9601L79.4678 39.7892L79.395 39.6876ZM79.1567 39.8585L79.0838 39.757C74.303 43.1896 68.0258 49.0762 64.7201 55.5763L64.8315 55.6329L64.9429 55.6896C68.2234 49.2391 74.4656 43.3806 79.2296 39.9601L79.1567 39.8585ZM64.8315 55.6329L64.7201 55.5763C63.068 58.8251 62.1628 62.2192 62.5481 65.5321L62.6723 65.5177L62.7965 65.5033C62.4187 62.2548 63.3047 58.911 64.9429 55.6896L64.8315 55.6329ZM62.6723 65.5177L62.5481 65.5321C62.9273 68.7912 64.558 71.986 67.9849 74.901L68.0659 74.8058L68.1468 74.7106C64.7621 71.8315 63.1675 68.6921 62.7965 65.5033L62.6723 65.5177ZM68.0659 74.8058L68.1461 74.9017C76.6457 67.7921 86.726 62.7395 95.2045 61.4694L95.186 61.3458L95.1675 61.2222C86.6311 62.5009 76.5095 67.5802 67.9857 74.7099L68.0659 74.8058ZM95.186 61.3458L95.2045 61.4694C99.4708 60.8304 103.344 61.1472 106.405 62.6543L106.46 62.5421L106.516 62.43C103.393 60.8927 99.4635 60.5788 95.1675 61.2222L95.186 61.3458ZM106.46 62.5421L106.405 62.6543C109.467 64.1616 111.705 66.8531 112.715 70.9325L112.836 70.9025L112.958 70.8724C111.931 66.7273 109.649 63.9724 106.516 62.43L106.46 62.5421ZM112.836 70.9025L112.717 70.9383L112.78 71.1502L112.9 71.1144L113.02 71.0785L112.956 70.8666L112.836 70.9025ZM112.9 71.1144L112.779 71.1473C113.069 72.2065 113.045 73.6879 112.598 75.3615L112.719 75.3937L112.84 75.4259C113.294 73.7236 113.325 72.1953 113.02 71.0814L112.9 71.1144ZM112.719 75.3937L112.598 75.3615C112.121 77.15 111.159 79.1691 109.564 81.1462L109.662 81.2247L109.759 81.3032C111.375 79.2998 112.354 77.2494 112.84 75.4259L112.719 75.3937ZM109.662 81.2247L109.564 81.1462C106.456 84.9992 100.948 88.6905 91.952 90.2324L91.9731 90.3556L91.9942 90.4788C101.041 88.9282 106.607 85.2105 109.759 81.3032L109.662 81.2247ZM91.9731 90.3556L91.9114 90.4643C93.6823 91.4692 96.1112 93.37 97.7994 96.0146L97.9047 95.9474L98.0101 95.8801C96.295 93.1932 93.832 91.2667 92.0348 90.2469L91.9731 90.3556ZM97.9047 95.9474L97.7994 96.0146C99.7119 99.0111 100.675 102.965 98.6562 107.64L98.7709 107.69L98.8857 107.739C100.942 102.976 99.9597 98.9347 98.0101 95.8801L97.9047 95.9474ZM98.7709 107.69L98.6562 107.64C97.2863 110.812 94.9406 113.243 92.1062 115.322L92.1801 115.423L92.2541 115.524C95.1095 113.429 97.4921 110.966 98.8857 107.739L98.7709 107.69ZM92.1801 115.423L92.1062 115.322C89.2732 117.4 85.9419 119.136 82.599 120.911L82.6577 121.022L82.7163 121.132C86.0538 119.359 89.4033 117.615 92.2541 115.524L92.1801 115.423ZM82.6577 121.022L82.599 120.911C75.9013 124.469 69.1536 128.194 66.0638 135.193L66.1782 135.243L66.2925 135.294C69.342 128.386 76.0054 124.696 82.7163 121.132L82.6577 121.022ZM66.1782 135.243L66.0633 135.194L66.0545 135.215L66.1694 135.264L66.2843 135.313L66.2931 135.293L66.1782 135.243ZM66.1694 135.264L66.0662 135.193L66.0535 135.212L66.1567 135.282L66.2598 135.353L66.2725 135.334L66.1694 135.264ZM66.1567 135.282L66.0531 135.212C65.6531 135.804 65.513 136.834 65.6062 138.142L65.7309 138.133L65.8556 138.124C65.763 136.826 65.9104 135.87 66.2602 135.352L66.1567 135.282ZM65.7309 138.133L65.6062 138.142C65.6989 139.442 66.0199 140.989 66.5108 142.59L66.6303 142.554L66.7498 142.517C66.2626 140.928 65.9465 139.4 65.8556 138.124L65.7309 138.133ZM66.6303 142.554L66.5108 142.59C67.4934 145.796 69.151 149.197 71.0002 151.255L71.0932 151.171L71.1862 151.087C69.3702 149.067 67.7266 145.704 66.7498 142.517L66.6303 142.554ZM71.0932 151.171L71.0096 151.078L70.824 151.245L70.9077 151.338L70.9913 151.431L71.1768 151.264L71.0932 151.171ZM70.9077 151.338L70.824 151.245L70.6375 151.413L70.7211 151.506L70.8048 151.599L70.9913 151.431L70.9077 151.338ZM70.7211 151.506L70.8147 151.423L69.7756 150.251L69.6821 150.334L69.5885 150.417L70.6276 151.589L70.7211 151.506ZM69.6821 150.334L69.7762 150.252C64.7866 144.548 62.7141 140.899 61.4558 135.801L61.3344 135.831L61.2131 135.861C62.484 141.01 64.5822 144.694 69.588 150.416L69.6821 150.334ZM61.3344 135.831L61.4558 135.801C60.7729 133.034 61.9273 130.758 64.2709 128.494L64.184 128.404L64.0972 128.315C61.7236 130.607 60.4995 132.97 61.2131 135.861L61.3344 135.831ZM64.184 128.404L64.2709 128.494C66.6098 126.236 70.1604 123.964 74.3215 121.2L74.2524 121.096L74.1832 120.992C70.0337 123.748 66.4571 126.036 64.0972 128.314L64.184 128.404ZM74.2524 121.096L74.3215 121.2C77.1219 119.34 80.9594 117.276 84.1135 114.708L84.0346 114.611L83.9557 114.515C80.8123 117.074 77.0133 119.112 74.1832 120.992L74.2524 121.096ZM84.0346 114.611L84.1135 114.708C87.2633 112.144 89.6868 109.108 89.6889 105.331L89.5639 105.331L89.4389 105.331C89.4368 108.992 87.0888 111.964 83.9557 114.515L84.0346 114.611ZM89.5639 105.331L89.6886 105.322C89.4785 102.333 88.5816 100.029 87.207 98.189L87.1069 98.2638L87.0067 98.3386C88.3501 100.137 89.2322 102.394 89.4392 105.34L89.5639 105.331ZM87.1069 98.2638L87.207 98.189C85.8294 96.3452 83.9672 94.9605 81.8218 93.8204L81.7631 93.9308L81.7045 94.0412C83.8296 95.1705 85.6583 96.5338 87.0067 98.3386L87.1069 98.2638ZM81.7631 93.9308L81.8218 93.8204C79.6757 92.68 77.2508 91.7866 74.7512 90.923L74.7104 91.0411L74.6696 91.1593C77.1686 92.0227 79.5771 92.9107 81.7045 94.0412L81.7631 93.9308ZM74.7104 91.0411L74.7512 90.923C72.2547 90.0605 69.6813 89.2263 67.251 88.2062L67.2026 88.3214L67.1542 88.4367C69.5943 89.461 72.1795 90.299 74.6696 91.1593L74.7104 91.0411ZM67.2026 88.3214L67.251 88.2062C65.9692 87.6681 62.7729 86.1451 59.4855 83.6823L59.4106 83.7823L59.3356 83.8824C62.6435 86.3605 65.8588 87.8929 67.1542 88.4367L67.2026 88.3214ZM59.4106 83.7823L59.4855 83.6823C56.1993 81.2203 52.8103 77.81 51.1602 73.4936L51.0434 73.5382L50.9266 73.5828C52.6007 77.962 56.0316 81.407 59.3356 83.8824L59.4106 83.7823ZM51.0434 73.5382L51.1602 73.4936C49.5073 69.1697 49.6049 63.9519 53.2656 57.8968L53.1586 57.8322L53.0517 57.7675C49.3543 63.8833 49.2441 69.1815 50.9266 73.5828L51.0434 73.5382ZM53.1586 57.8322L53.2656 57.8968C56.9229 51.8477 64.1355 44.9633 76.7072 37.2845L76.642 37.1779L76.5769 37.0712C63.9894 44.7596 56.7385 51.6694 53.0517 57.7675L53.1586 57.8322ZM76.642 37.1779L76.7073 37.2844L76.8763 37.1809L76.811 37.0743L76.7457 36.9678L76.5767 37.0713L76.642 37.1779ZM76.811 37.0743L76.722 37.1621L76.8606 37.3027L76.9496 37.215L77.0387 37.1272L76.9 36.9866L76.811 37.0743ZM96.4702 69.2413L96.5061 69.1216C94.6718 68.5708 92.0054 68.7352 89.1024 69.3269L89.1274 69.4493L89.1523 69.5718C92.047 68.9819 94.662 68.8288 96.4342 69.3611L96.4702 69.2413ZM89.1274 69.4493L89.1024 69.3269C83.2632 70.517 76.0303 73.5289 71.5295 76.8626L71.6039 76.963L71.6783 77.0635C76.1452 73.7549 83.3429 70.7559 89.1523 69.5718L89.1274 69.4493ZM71.6039 76.963L71.5296 76.8625L71.0413 77.2239L71.1157 77.3243L71.19 77.4248L71.6783 77.0635L71.6039 76.963ZM71.1157 77.3243L71.0314 77.4167L71.4806 77.8268L71.5649 77.7345L71.6492 77.6422L71.1999 77.232L71.1157 77.3243ZM71.5649 77.7345L71.4806 77.8268C74.8131 80.8665 80.8462 82.5571 86.3923 82.156L86.3832 82.0314L86.3742 81.9067C80.8759 82.3043 74.9174 80.6232 71.6491 77.6421L71.5649 77.7345ZM86.3832 82.0314L86.3923 82.156C91.9448 81.7543 97.2808 79.2207 98.8757 73.5113L98.7553 73.4777L98.6349 73.444C97.0809 79.0073 91.8767 81.5086 86.3742 81.9067L86.3832 82.0314ZM98.7553 73.4777L98.8757 73.5113C99.1806 72.4196 99.1336 71.4525 98.6769 70.6659L98.5688 70.7286L98.4607 70.7914C98.8731 71.5016 98.9282 72.3939 98.6349 73.444L98.7553 73.4777ZM98.5688 70.7286L98.6769 70.6659C98.2237 69.8857 97.4355 69.4008 96.5061 69.1216L96.4702 69.2413L96.4342 69.361C97.3277 69.6295 98.0504 70.0852 98.4607 70.7914L98.5688 70.7286Z" fill="black"/>
<path d="M39.8074 76.358C34.8314 58.1161 62.3234 45.1909 76.7536 37.2651C64.3138 44.6038 43.1982 61.0426 52.5281 75.7619C63.9568 93.7925 86.0916 86.9746 89.4743 103.565C91.9302 115.61 72.3997 119.761 63.3186 129.323C58.5959 134.295 66.3456 146.894 70.9069 151.339C66.8432 148.152 57.7615 136.645 59.2135 127.939C60.9551 117.497 83.7258 115.163 81.0153 103.565C77.7809 89.7264 44.2192 92.532 39.8074 76.358Z" fill="url(#paint2_linear_1543_6989)" stroke="black" stroke-width="0.25"/>
<path d="M80.0856 31.571L87.6739 23.2677C84.8128 21.5903 76.1547 17.2791 69.3874 12.0456C66.8994 6.40947 85.9323 11.4585 95.7598 14.6875C102.933 8.8585 117.505 -1.89376 118.4 1.72947C119.52 6.2585 113.051 11.0391 104.965 21.6069C109.643 43.8495 106.251 47.3133 103.97 46.265L94.267 29.2811L85.3104 37.1065C86.9309 39.7343 87.6739 44.7806 84.1908 47.171L77.5977 38.6161L69.3874 32.2C70.8802 28.8032 76.5196 30.271 80.0856 31.571Z" fill="#5C6FCB" stroke="black" stroke-width="0.25"/>
<defs>
<linearGradient id="paint0_linear_1543_6989" x1="54.0211" y1="87.5878" x2="54.0211" y2="150.868" gradientUnits="userSpaceOnUse">
<stop stop-color="#74B9FF"/>
<stop offset="0.326923" stop-color="#A29BFE"/>
<stop offset="0.581731" stop-color="#FAB1A0"/>
<stop offset="1" stop-color="#FAB1A0"/>
</linearGradient>
<linearGradient id="paint1_linear_1543_6989" x1="81.5513" y1="37.2334" x2="81.5513" y2="151.421" gradientUnits="userSpaceOnUse">
<stop stop-color="#5C6FCB"/>
<stop offset="0.5" stop-color="#74B9FF"/>
<stop offset="0.822115" stop-color="#A29BFE"/>
<stop offset="1" stop-color="#A29BFE"/>
</linearGradient>
<linearGradient id="paint2_linear_1543_6989" x1="64.984" y1="36.8877" x2="64.984" y2="151.372" gradientUnits="userSpaceOnUse">
<stop offset="0.163462" stop-color="#FAB1A0"/>
<stop offset="0.490385" stop-color="#FAB1A0"/>
<stop offset="0.629808" stop-color="#A29BFE"/>
<stop offset="0.774038" stop-color="#A29BFE"/>
</linearGradient>
</defs>
</svg>
