<svg width="155" height="197" viewBox="0 0 155 197" fill="none" xmlns="http://www.w3.org/2000/svg">
<path d="M52.1875 88.0317L57.5366 89.9285C53.7632 93.8907 46.0978 103.246 47.9579 115.978C49.8239 128.749 63.8991 145.07 70.9069 152.236C59.9184 146.335 38.4016 130.716 37.3841 115.978C36.3889 101.562 47.1286 91.3616 52.1875 88.0317Z" fill="url(#paint0_linear_1614_6622)" stroke="black" stroke-width="0.25"/>
<path d="M76.9505 37.4021L79.1898 39.6785L79.3939 39.8865L79.1575 40.0564C74.3851 43.5006 68.1256 49.4038 64.8323 55.9128C63.1871 59.1648 62.2905 62.5511 62.6722 65.8494C63.0474 69.0902 64.6605 72.2736 68.0657 75.1853C76.5773 68.0293 86.6783 62.9379 95.1859 61.657C99.467 61.0125 103.368 61.3293 106.46 62.8591C109.558 64.3919 111.818 67.1295 112.836 71.2625L112.9 71.4753C113.196 72.567 113.169 74.0789 112.719 75.7751C112.237 77.5901 111.267 79.6351 109.661 81.6355C106.531 85.5358 100.993 89.2595 91.9691 90.8132C93.7535 91.8302 96.2018 93.754 97.9046 96.4353C99.8355 99.476 100.808 103.494 98.7708 108.236C97.3891 111.452 95.0253 113.912 92.18 116.01C89.3381 118.105 85.9986 119.852 82.6585 121.635C75.9541 125.215 69.2479 128.941 66.178 135.931L66.1693 135.952L66.1566 135.97C65.7813 136.529 65.6379 137.527 65.7308 138.837C65.8226 140.131 66.1411 141.677 66.6302 143.281C67.61 146.494 69.2613 149.894 71.0941 151.943L70.721 152.277L69.6819 151.099C64.6842 145.357 62.5979 141.671 61.3333 136.522C60.6356 133.68 61.8245 131.35 64.1829 129.06C66.5322 126.78 70.0956 124.488 74.2513 121.714C77.0665 119.834 80.8846 117.773 84.0335 115.196C87.078 112.705 89.4146 109.791 89.5579 106.211L89.5648 105.862C89.3557 102.881 88.4652 100.589 87.1068 98.7615C85.7437 96.9277 83.8981 95.5465 81.763 94.406C79.6263 93.2648 77.2096 92.3697 74.7103 91.5017C72.2169 90.6358 69.6369 89.7959 67.2015 88.7683C65.9128 88.2245 62.707 86.6889 59.4095 84.2058C56.1144 81.7245 52.7052 78.2793 51.0433 73.9099C49.3758 69.5257 49.4798 64.242 53.1585 58.1257C56.8303 52.0211 64.061 45.0882 76.6409 37.365L76.8109 37.2605L76.9505 37.4021ZM96.47 69.5925C94.6663 69.0484 92.0256 69.2088 89.1273 69.8025C83.3026 70.9957 76.0867 74.0171 71.6028 77.3552L71.1185 77.7156L71.5638 78.1248C74.8642 81.1506 80.8612 82.8456 86.3841 82.4441C91.9131 82.0419 97.1825 79.5107 98.7562 73.8474C99.0549 72.7721 99.0033 71.8396 98.5696 71.0886C98.1383 70.3422 97.3822 69.8679 96.47 69.5925Z" fill="url(#paint1_linear_1614_6622)"/>
<path d="M76.9505 37.4021L77.0396 37.3144L77.0395 37.3143L76.9505 37.4021ZM79.1898 39.6785L79.279 39.5909L79.2789 39.5908L79.1898 39.6785ZM79.3939 39.8865L79.4668 39.988L79.5851 39.9029L79.4831 39.7989L79.3939 39.8865ZM79.1575 40.0564L79.0846 39.9549L79.0844 39.955L79.1575 40.0564ZM64.8323 55.9128L64.7208 55.8564L64.7208 55.8564L64.8323 55.9128ZM62.6722 65.8494L62.548 65.8637L62.548 65.8637L62.6722 65.8494ZM68.0657 75.1853L67.9845 75.2803L68.0651 75.3492L68.1462 75.281L68.0657 75.1853ZM95.1859 61.657L95.1672 61.5334L95.1672 61.5334L95.1859 61.657ZM106.46 62.8591L106.516 62.7471L106.516 62.7471L106.46 62.8591ZM112.836 71.2625L112.715 71.2924L112.716 71.2982L112.836 71.2625ZM112.9 71.4753L113.02 71.4426L113.02 71.4396L112.9 71.4753ZM112.719 75.7751L112.84 75.8072L112.84 75.8072L112.719 75.7751ZM109.661 81.6355L109.759 81.7137L109.759 81.7137L109.661 81.6355ZM91.9691 90.8132L91.9478 90.69L91.6043 90.7492L91.9072 90.9218L91.9691 90.8132ZM97.9046 96.4353L98.0101 96.3683L98.0101 96.3683L97.9046 96.4353ZM98.7708 108.236L98.8857 108.285L98.8857 108.285L98.7708 108.236ZM92.18 116.01L92.2542 116.11L92.2542 116.11L92.18 116.01ZM82.6585 121.635L82.5996 121.525L82.5996 121.525L82.6585 121.635ZM66.178 135.931L66.0636 135.881L66.0631 135.882L66.178 135.931ZM66.1693 135.952L66.2724 136.022L66.2793 136.012L66.2841 136.001L66.1693 135.952ZM66.1566 135.97L66.0534 135.9L66.0528 135.901L66.1566 135.97ZM65.7308 138.837L65.6061 138.846L65.6061 138.846L65.7308 138.837ZM66.6302 143.281L66.5106 143.317L66.5106 143.317L66.6302 143.281ZM71.0941 151.943L71.1774 152.036L71.2705 151.953L71.1872 151.86L71.0941 151.943ZM70.721 152.277L70.6273 152.36L70.7106 152.454L70.8044 152.37L70.721 152.277ZM69.6819 151.099L69.5877 151.181L69.5882 151.182L69.6819 151.099ZM61.3333 136.522L61.2119 136.552L61.2119 136.552L61.3333 136.522ZM64.1829 129.06L64.0959 128.971L64.0959 128.971L64.1829 129.06ZM74.2513 121.714L74.1819 121.61L74.1819 121.61L74.2513 121.714ZM84.0335 115.196L84.1127 115.293L84.1127 115.293L84.0335 115.196ZM89.5579 106.211L89.6828 106.216L89.6829 106.213L89.5579 106.211ZM89.5648 105.862L89.6902 105.865L89.6895 105.853L89.5648 105.862ZM87.1068 98.7615L87.2071 98.6869L87.2071 98.6869L87.1068 98.7615ZM81.763 94.406L81.8219 94.2957L81.8219 94.2957L81.763 94.406ZM74.7103 91.5017L74.7513 91.3836L74.7513 91.3836L74.7103 91.5017ZM67.2015 88.7683L67.1529 88.8835L67.1529 88.8835L67.2015 88.7683ZM59.4095 84.2058L59.3343 84.3057L59.3343 84.3057L59.4095 84.2058ZM51.0433 73.9099L50.9264 73.9543L50.9264 73.9544L51.0433 73.9099ZM53.1585 58.1257L53.0514 58.0613L53.0514 58.0613L53.1585 58.1257ZM76.6409 37.365L76.7063 37.4715L76.7064 37.4715L76.6409 37.365ZM76.8109 37.2605L76.8999 37.1727L76.8301 37.1019L76.7454 37.154L76.8109 37.2605ZM96.47 69.5925L96.5062 69.4729L96.5061 69.4729L96.47 69.5925ZM89.1273 69.8025L89.1022 69.68L89.1022 69.68L89.1273 69.8025ZM71.6028 77.3552L71.6775 77.4555L71.6775 77.4555L71.6028 77.3552ZM71.1185 77.7156L71.0439 77.6153L70.9227 77.7054L71.0339 77.8076L71.1185 77.7156ZM71.5638 78.1248L71.4792 78.2168L71.4793 78.2169L71.5638 78.1248ZM86.3841 82.4441L86.3932 82.5688L86.3932 82.5688L86.3841 82.4441ZM98.7562 73.8474L98.8766 73.8809L98.8766 73.8809L98.7562 73.8474ZM98.5696 71.0886L98.6779 71.0261L98.6779 71.0261L98.5696 71.0886ZM76.9505 37.4021L76.8614 37.4898L79.1006 39.7661L79.1898 39.6785L79.2789 39.5908L77.0396 37.3144L76.9505 37.4021ZM79.1898 39.6785L79.1005 39.766L79.3046 39.974L79.3939 39.8865L79.4831 39.7989L79.279 39.5909L79.1898 39.6785ZM79.3939 39.8865L79.3209 39.785L79.0846 39.9549L79.1575 40.0564L79.2305 40.1579L79.4668 39.988L79.3939 39.8865ZM79.1575 40.0564L79.0844 39.955C74.3035 43.4053 68.0266 49.3226 64.7208 55.8564L64.8323 55.9128L64.9439 55.9693C68.2246 49.485 74.4666 43.5959 79.2307 40.1578L79.1575 40.0564ZM64.8323 55.9128L64.7208 55.8564C63.0686 59.122 62.1626 62.5334 62.548 65.8637L62.6722 65.8494L62.7964 65.835C62.4184 62.5688 63.3055 59.2076 64.9439 55.9693L64.8323 55.9128ZM62.6722 65.8494L62.548 65.8637C62.9273 69.1396 64.5582 72.3506 67.9845 75.2803L68.0657 75.1853L68.147 75.0903C64.7628 72.1966 63.1675 69.0409 62.7964 65.835L62.6722 65.8494ZM68.0657 75.1853L68.1462 75.281C76.6457 68.1351 86.726 63.0572 95.2045 61.7806L95.1859 61.657L95.1672 61.5334C86.6306 62.8187 76.5089 67.9236 67.9853 75.0896L68.0657 75.1853ZM95.1859 61.657L95.2045 61.7806C99.4707 61.1383 103.343 61.4565 106.405 62.9712L106.46 62.8591L106.516 62.7471C103.392 61.202 99.4633 60.8866 95.1672 61.5334L95.1859 61.657ZM106.46 62.8591L106.405 62.9712C109.467 64.4863 111.705 67.1921 112.715 71.2923L112.836 71.2625L112.958 71.2326C111.932 67.067 109.649 64.2976 106.516 62.7471L106.46 62.8591ZM112.836 71.2625L112.716 71.2982L112.78 71.5111L112.9 71.4753L113.02 71.4396L112.956 71.2267L112.836 71.2625ZM112.9 71.4753L112.779 71.5081C113.068 72.5726 113.044 74.0612 112.598 75.7431L112.719 75.7751L112.84 75.8072C113.294 74.0966 113.324 72.5614 113.02 71.4426L112.9 71.4753ZM112.719 75.7751L112.598 75.7431C112.121 77.5407 111.159 79.57 109.564 81.5573L109.661 81.6355L109.759 81.7137C111.375 79.7002 112.354 77.6396 112.84 75.8072L112.719 75.7751ZM109.661 81.6355L109.564 81.5573C106.455 85.4304 100.946 89.1407 91.9478 90.69L91.9691 90.8132L91.9903 90.9364C101.039 89.3783 106.606 85.6413 109.759 81.7137L109.661 81.6355ZM91.9691 90.8132L91.9072 90.9218C93.6784 91.9313 96.1097 93.8421 97.7991 96.5023L97.9046 96.4353L98.0101 96.3683C96.2939 93.6659 93.8286 91.7291 92.0309 90.7046L91.9691 90.8132ZM97.9046 96.4353L97.7991 96.5023C99.7116 99.514 100.674 103.488 98.656 108.187L98.7708 108.236L98.8857 108.285C100.942 103.499 99.9594 99.438 98.0101 96.3683L97.9046 96.4353ZM98.7708 108.236L98.656 108.187C97.286 111.375 94.9405 113.819 92.1058 115.909L92.18 116.01L92.2542 116.11C95.11 114.004 97.4922 111.529 98.8857 108.285L98.7708 108.236ZM92.18 116.01L92.1058 115.909C89.2728 117.998 85.9425 119.741 82.5996 121.525L82.6585 121.635L82.7174 121.746C86.0548 119.964 89.4034 118.212 92.2542 116.11L92.18 116.01ZM82.6585 121.635L82.5996 121.525C75.9017 125.101 69.1535 128.846 66.0636 135.881L66.178 135.931L66.2925 135.982C69.3423 129.037 76.0065 125.328 82.7174 121.746L82.6585 121.635ZM66.178 135.931L66.0631 135.882L66.0544 135.903L66.1693 135.952L66.2841 136.001L66.2929 135.981L66.178 135.931ZM66.1693 135.952L66.0661 135.881L66.0534 135.9L66.1566 135.97L66.2597 136.041L66.2724 136.022L66.1693 135.952ZM66.1566 135.97L66.0528 135.901C65.6527 136.496 65.5129 137.532 65.6061 138.846L65.7308 138.837L65.8555 138.828C65.7629 137.523 65.91 136.561 66.2603 136.04L66.1566 135.97ZM65.7308 138.837L65.6061 138.846C65.6988 140.152 66.0197 141.708 66.5106 143.317L66.6302 143.281L66.7498 143.245C66.2625 141.647 65.9465 140.11 65.8555 138.828L65.7308 138.837ZM66.6302 143.281L66.5106 143.317C67.4933 146.54 69.1516 149.959 71.0009 152.026L71.0941 151.943L71.1872 151.86C69.371 149.829 67.7266 146.448 66.7498 143.245L66.6302 143.281ZM71.0941 151.943L71.0107 151.85L70.6376 152.184L70.721 152.277L70.8044 152.37L71.1774 152.036L71.0941 151.943ZM70.721 152.277L70.8147 152.194L69.7757 151.017L69.6819 151.099L69.5882 151.182L70.6273 152.36L70.721 152.277ZM69.6819 151.099L69.7762 151.017C64.7866 145.284 62.713 141.616 61.4547 136.492L61.3333 136.522L61.2119 136.552C62.4828 141.727 64.5818 145.429 69.5877 151.181L69.6819 151.099ZM61.3333 136.522L61.4547 136.492C60.7722 133.712 61.9266 131.425 64.27 129.15L64.1829 129.06L64.0959 128.971C61.7224 131.275 60.4991 133.648 61.2119 136.552L61.3333 136.522ZM64.1829 129.06L64.27 129.15C66.6089 126.88 70.1593 124.596 74.3207 121.818L74.2513 121.714L74.1819 121.61C70.032 124.38 66.4556 126.68 64.0959 128.971L64.1829 129.06ZM74.2513 121.714L74.3207 121.818C77.121 119.948 80.9584 117.874 84.1127 115.293L84.0335 115.196L83.9543 115.099C80.8108 117.672 77.0119 119.72 74.1819 121.61L74.2513 121.714ZM84.0335 115.196L84.1127 115.293C87.1654 112.795 89.5373 109.851 89.6828 106.216L89.5579 106.211L89.433 106.206C89.2919 109.731 86.9907 112.615 83.9543 115.099L84.0335 115.196ZM89.5579 106.211L89.6829 106.213L89.6897 105.865L89.5648 105.862L89.4398 105.86L89.4329 106.208L89.5579 106.211ZM89.5648 105.862L89.6895 105.853C89.4788 102.851 88.581 100.535 87.2071 98.6869L87.1068 98.7615L87.0064 98.836C88.3494 100.643 89.2325 102.911 89.4401 105.871L89.5648 105.862ZM87.1068 98.7615L87.2071 98.6869C85.8295 96.8336 83.9672 95.4416 81.8219 94.2957L81.763 94.406L81.7041 94.5163C83.8291 95.6513 85.6579 97.0218 87.0064 98.836L87.1068 98.7615ZM81.763 94.406L81.8219 94.2957C79.6758 93.1495 77.2509 92.2517 74.7513 91.3836L74.7103 91.5017L74.6693 91.6198C77.1683 92.4876 79.5768 93.38 81.7041 94.5163L81.763 94.406ZM74.7103 91.5017L74.7513 91.3836C72.2546 90.5166 69.6806 89.6787 67.2501 88.6531L67.2015 88.7683L67.1529 88.8835C69.5932 89.9131 72.1791 90.755 74.6693 91.6198L74.7103 91.5017ZM67.2015 88.7683L67.2501 88.6531C65.9682 88.1122 62.772 86.5813 59.4847 84.106L59.4095 84.2058L59.3343 84.3057C62.642 86.7964 65.8574 88.3368 67.1529 88.8835L67.2015 88.7683ZM59.4095 84.2058L59.4847 84.106C56.1986 81.6314 52.8102 78.2036 51.1601 73.8655L51.0433 73.9099L50.9264 73.9544C52.6003 78.355 56.0303 81.8176 59.3343 84.3057L59.4095 84.2058ZM51.0433 73.9099L51.1601 73.8655C49.5073 69.5198 49.6051 64.2761 53.2656 58.1902L53.1585 58.1257L53.0514 58.0613C49.3544 64.2078 49.2443 69.5316 50.9264 73.9543L51.0433 73.9099ZM53.1585 58.1257L53.2656 58.1902C56.9227 52.11 64.1343 45.1899 76.7063 37.4715L76.6409 37.365L76.5755 37.2585C63.9877 44.9865 56.7379 51.9322 53.0514 58.0613L53.1585 58.1257ZM76.6409 37.365L76.7064 37.4715L76.8763 37.367L76.8109 37.2605L76.7454 37.154L76.5755 37.2585L76.6409 37.365ZM76.8109 37.2605L76.7219 37.3483L76.8615 37.4899L76.9505 37.4021L77.0395 37.3143L76.8999 37.1727L76.8109 37.2605ZM96.47 69.5925L96.5061 69.4729C94.6712 68.9193 92.0046 69.0855 89.1022 69.68L89.1273 69.8025L89.1523 69.9249C92.0465 69.3321 94.6614 69.1774 96.4339 69.7122L96.47 69.5925ZM89.1273 69.8025L89.1022 69.68C83.2625 70.8763 76.029 73.9042 71.5282 77.255L71.6028 77.3552L71.6775 77.4555C76.1444 74.13 83.3427 71.1151 89.1523 69.9249L89.1273 69.8025ZM71.6028 77.3552L71.5282 77.2549L71.0439 77.6153L71.1185 77.7156L71.1931 77.8159L71.6775 77.4555L71.6028 77.3552ZM71.1185 77.7156L71.0339 77.8076L71.4792 78.2168L71.5638 78.1248L71.6484 78.0327L71.203 77.6235L71.1185 77.7156ZM71.5638 78.1248L71.4793 78.2169C74.8118 81.2721 80.8462 82.972 86.3932 82.5688L86.3841 82.4441L86.375 82.3194C80.8761 82.7192 74.9166 81.029 71.6483 78.0326L71.5638 78.1248ZM86.3841 82.4441L86.3932 82.5688C91.9476 82.1647 97.2826 79.6171 98.8766 73.8809L98.7562 73.8474L98.6357 73.8139C97.0823 79.4043 91.8786 81.9191 86.375 82.3194L86.3841 82.4441ZM98.7562 73.8474L98.8766 73.8809C99.1811 72.7848 99.1335 71.8151 98.6779 71.0261L98.5696 71.0886L98.4614 71.1511C98.8731 71.864 98.9287 72.7594 98.6357 73.814L98.7562 73.8474ZM98.5696 71.0886L98.6779 71.0261C98.2252 70.2428 97.4364 69.7537 96.5062 69.4729L96.47 69.5925L96.4339 69.7122C97.3279 69.9821 98.0514 70.4417 98.4614 71.1512L98.5696 71.0886Z" fill="black"/>
<path d="M39.8074 76.7445C34.8314 58.409 62.3234 45.4176 76.7536 37.4512C64.3138 44.8275 43.1982 61.3505 52.5281 76.1454C63.9568 94.2684 86.0916 87.4156 89.4743 104.091C91.9302 116.197 72.3997 120.37 63.3186 129.981C58.5959 134.979 66.3456 147.642 70.9069 152.11C66.8432 148.906 57.7615 137.34 59.2135 128.59C60.9551 118.094 83.7258 115.748 81.0153 104.091C77.7809 90.1815 44.2192 93.0014 39.8074 76.7445Z" fill="url(#paint2_linear_1614_6622)" stroke="black" stroke-width="0.25"/>
<path d="M80.0856 31.7277L87.6739 23.3819C84.8128 21.6959 76.1547 17.3626 69.3874 12.1022C66.8994 6.43721 85.9323 11.5121 95.7598 14.7577C102.933 8.8988 117.505 -1.9086 118.4 1.73321C119.52 6.28547 113.051 11.0906 104.965 21.7126C109.643 44.0692 106.251 47.5508 103.97 46.4971L94.267 29.4261L85.3104 37.2916C86.9309 39.9329 87.6739 45.0052 84.1908 47.4077L77.5977 38.809L69.3874 32.36C70.8802 28.9458 76.5196 30.4211 80.0856 31.7277Z" fill="#2D3436" stroke="black" stroke-width="0.25"/>
<defs>
<linearGradient id="paint0_linear_1614_6622" x1="54.1131" y1="88.0317" x2="54.1131" y2="152.236" gradientUnits="userSpaceOnUse">
<stop stop-color="#2D3436"/>
<stop offset="0.995192" stop-color="#FDFEFE"/>
</linearGradient>
<linearGradient id="paint1_linear_1614_6622" x1="81.5512" y1="37.2605" x2="81.5512" y2="152.277" gradientUnits="userSpaceOnUse">
<stop stop-color="#2D3436"/>
<stop offset="0.201923" stop-color="#2D3436"/>
<stop offset="0.995192" stop-color="#FDFEFE"/>
</linearGradient>
<linearGradient id="paint2_linear_1614_6622" x1="64.984" y1="37.0718" x2="64.984" y2="152.143" gradientUnits="userSpaceOnUse">
<stop offset="0.0001" stop-color="#2D3436"/>
<stop offset="0.899038" stop-color="#FDFEFE"/>
<stop offset="1" stop-color="#2D3436"/>
</linearGradient>
</defs>
</svg>
